<?xml version="1.0" encoding="utf-8"?>
<!-- Generator: Adobe Illustrator 24.2.2, SVG Export Plug-In . SVG Version: 6.00 Build 0)  -->
<svg version="1.1" id="Layer_1" xmlns="http://www.w3.org/2000/svg" xmlns:xlink="http://www.w3.org/1999/xlink" x="0px" y="0px"
	 viewBox="0 0 1125 2436" style="enable-background:new 0 0 1125 2436;" xml:space="preserve">
<style type="text/css">
	.st0{fill:#F6F9FA;}
	.st1{fill:#EDB087;}
</style>
<path class="st0" d="M429.01,1217.45c0.06-4.82,0.34-9.65,0.11-14.46c-0.16-3.42,0.35-5.05,4.44-4.94c3.63,0.09,4.82,0.79,4.7,4.66
	c-0.32,10.31-0.08,20.64-0.22,30.96c-0.02,1.56,1.26,4.22-1.28,4.54c-2.55,0.32-5.49,1.27-7.73-1.68
	c-4.4-5.81-9.1-11.39-13.67-17.06c-0.98-1.6-1.84-3.33-4.16-4.51c0,8.23,0,15.85,0,23.47c-2.96-0.03-5.92-0.06-8.88-0.09
	c-0.01-13.28-0.03-26.56-0.04-39.84c5.16-1.04,9.1,0.06,12.2,4.96c3.17,5.02,7.33,9.4,11.05,14.06c0.45,0.44,0.9,0.87,1.36,1.31
	c0,0-0.14,0-0.14,0c0.6,0.89,0.74,2.17,2.08,2.5C429.56,1220.01,429.1,1218.72,429.01,1217.45z"/>
<path class="st0" d="M481.17,1215.41c0.58-0.63,1.27-1.22,1.01-2.23c0.44-0.53,0.87-1.06,1.31-1.59c0,0-0.1,0.25-0.1,0.25
	c0.36-0.39,0.72-0.77,1.08-1.15c0,0-0.13,0.14-0.13,0.14c0.39-0.38,0.78-0.75,1.17-1.13c0,0-0.16,0.18-0.16,0.18
	c0.64-0.44,1.28-0.89,1.91-1.33c0,0-0.1,0.07-0.1,0.07c0.7-0.36,1.4-0.71,2.11-1.07c0,0-0.13,0.08-0.13,0.08
	c0.71-0.08,1.49-0.05,1.69-1l-0.24,0.25c0,0,0.25,0.24,0.25,0.23c0.43-0.14,0.87-0.29,1.3-0.43c3.79,0.07,7.52,0.4,11.08,3.09
	c0-4.14,0.16-7.62-0.04-11.08c-0.22-3.64,2.25-2.99,4.3-2.93c1.96,0.06,4.48-0.93,4.45,2.8c-0.09,12.29,0.05,24.59,0.03,36.89
	c-0.01,2.74-5.21,4.64-7.88,2.4c-1.45-1.21-1.75-1.51-3.27-0.44c-2.69,1.89-6.03,1.16-9.06,1.78c-0.6-1.22-1.79-0.84-2.77-1.03
	c-0.56-0.27-1.12-0.55-1.68-0.82c-1.72-1.71-3.44-3.41-5.16-5.12c-0.3-0.59-0.6-1.18-0.9-1.76c-0.07-1.01,0.09-2.1-0.97-2.77
	c0,0,0.08-0.2,0.08-0.2c-0.05-3.02-0.11-6.05-0.16-9.08c0,0-0.02-0.33-0.02-0.33C481.11,1217.42,481.2,1216.44,481.17,1215.41z
	 M488.82,1222.75c-0.06,5.26,2.97,8.83,7.4,8.72c4.23-0.1,7.08-3.55,7.1-8.58c0.01-4.03-3.09-8.31-6.13-8.44
	C491.86,1214.21,488.89,1217.16,488.82,1222.75z"/>
<path class="st1" d="M567.24,1232.02c3.37-10.57,6.26-19.93,9.4-29.21c0.64-1.9,0.47-4.84,4.01-4.69c3.32,0.14,2.76,2.87,3.38,4.65
	c2.7,7.84,5.2,15.76,7.79,23.63c0.39,1.18,0.38,2.98,2.12,2.86c1.44-0.1,1.19-1.81,1.52-2.83c2.71-8.36,5.31-16.75,8.05-25.09
	c0.46-1.41,0.5-3.47,3-3.21c1.44,0.15,2.61-0.06,1.88,2.19c-3.91,11.98-7.69,24-11.45,36.02c-0.56,1.79-1.68,2.09-3.37,2.16
	c-2.02,0.08-2.46-1.1-2.94-2.6c-2.51-7.73-5.04-15.46-7.65-23.16c-0.51-1.49-0.41-4.02-2.16-4.06c-1.81-0.04-2.43,2.13-3,3.97
	c-2.35,7.61-4.94,15.15-7.37,22.73c-0.51,1.57-0.54,3.15-2.96,3.18c-2.32,0.02-3.13-1-3.76-2.99c-3.65-11.55-7.43-23.06-11.12-34.59
	c-0.3-0.93-1.41-2.32,0.63-2.67c1.74-0.3,3.16-0.09,3.8,2.12c1.47,5.1,3.2,10.12,4.84,15.17
	C563.53,1220.7,565.21,1225.81,567.24,1232.02z"/>
<path class="st0" d="M525.85,1225.39c3.34,6.31,7.8,8.08,13.44,4.87c3.68-2.1,4.37,0.8,5.72,2.39c2.05,2.41-0.79,3.04-2.02,3.88
	c-6,4.08-16.02,2.95-21.14-2.23c-5.27-5.33-6.09-14.59-1.83-20.68c4.46-6.38,12.75-8.51,19.93-5.12c5.45,2.58,8.74,8.76,8.23,14.72
	c-0.2,2.3-1.41,2.19-2.96,2.18C538.95,1225.38,532.68,1225.39,525.85,1225.39z M532.94,1220.07c1.33,0,2.67,0.07,4-0.02
	c0.92-0.07,2.17,0.55,2.69-0.56c0.56-1.21-0.44-2.19-1.12-3.08c-1.81-2.38-8.92-2.45-10.88-0.11c-0.73,0.88-1.73,1.9-1.28,3.06
	c0.55,1.41,2.03,0.57,3.1,0.68C530.6,1220.16,531.77,1220.06,532.94,1220.07z"/>
<path class="st0" d="M469.91,1236.35c-0.32,0.2-0.64,0.4-0.96,0.6c-0.69,0.27-1.45,0.46-1.6,1.36c-3.28-0.59-6.36,1.2-9.78,0.5
	c-8.55-1.73-13.68-7.69-13.51-16.33c0.17-8.22,5.68-14.36,14.01-15.53c1.64-0.23,3.3-0.23,4.96-0.34c0.42,0.13,0.84,0.26,1.27,0.39
	l0.22-0.2c0,0-0.2-0.22-0.2-0.22c0.3,0.87,1.01,0.95,1.77,0.94c0,0,0.31-0.03,0.31-0.03c0.55,0.33,1.1,0.65,1.64,0.98
	c1.02,0.65,2.04,1.3,3.06,1.95c0.56,0.49,1.11,0.98,1.67,1.47c0,0-0.2-0.19-0.2-0.19c0.45,0.64,0.9,1.29,1.35,1.93
	c0,0-0.09-0.14-0.09-0.14c0.39,0.52,0.79,1.05,1.18,1.57c0,0,0.04,0.37,0.04,0.37c0.02,0.72,0.16,1.37,0.96,1.64
	c0,0-0.21,0.28-0.21,0.28c0.59,3.71,0.56,7.42,0.03,11.14c0,0,0.17,0.3,0.17,0.3c-0.48,0.84-0.95,1.69-1.43,2.53
	c-0.19,0.31-0.38,0.62-0.56,0.93c-0.53,0.69-1.06,1.38-1.59,2.08l-0.33,0.05c0,0-0.07,0.32-0.07,0.32
	C471.31,1235.24,470.61,1235.8,469.91,1236.35z M452.92,1222.71c-0.05,5.35,2.84,8.81,7.35,8.82c4.18,0.01,7.3-3.52,7.41-8.36
	c0.11-5.02-3.1-8.77-7.52-8.77C455.77,1214.4,452.96,1217.62,452.92,1222.71z"/>
<path class="st1" d="M676.29,1220.95c3.65-3.38,7.45-6.61,10.88-10.21c2.06-2.16,4.11-3.24,8.19-2.15
	c-3.21,3.02-5.88,5.82-8.84,8.25c-3.01,2.46-3.45,4.49-0.7,7.65c3.67,4.2,6.77,8.9,10.18,13.47c-3.2,1.12-5.27,0.36-6.95-2.3
	c-1.67-2.66-3.6-5.21-5.71-7.55c-1.28-1.43-1.97-4.9-4.28-3.67c-2.54,1.36-5.52,3.32-5.63,7.05c-0.04,1.16-0.14,2.34-0.02,3.49
	c0.27,2.4-0.44,3.91-3.12,3.6c-2.37-0.27-1.07-2.22-1.08-3.21c-0.14-11.98,0.02-23.96-0.21-35.94c-0.06-3.14,0.97-4.2,3.86-3.95
	c0.9,1.69,0.59,3.54,0.59,5.32c0.02,6.57-0.02,13.14-0.01,19.71c0,0.76-0.29,1.88,0.66,2.09
	C675.21,1222.86,675.71,1221.73,676.29,1220.95z"/>
<path class="st1" d="M640.07,1223.24c-0.03,7.57-6.05,16.02-11.56,16.02c-13.51,0-17.9-7.42-18.19-16
	c-0.29-8.8,6.85-15.94,15.19-15.75C634.01,1207.71,640.11,1214.29,640.07,1223.24z M614.79,1223.27c0.06,7.18,4.29,11.7,10.77,11.52
	c6.14-0.17,10.36-4.89,10.36-11.59c0-6.38-4.65-11.6-10.44-11.72C619.3,1211.35,614.73,1216.39,614.79,1223.27z"/>
<path class="st1" d="M710.31,1238.71c-4.07-0.15-7.37-0.37-10.3-2.27c-1.16-0.76-2.26-1.26-1.32-3.05c0.89-1.7,1.8-1.42,3.14-0.7
	c3.79,2.02,7.84,2.6,12.07,1.76c2.15-0.43,3.68-1.52,3.8-3.92c0.12-2.41-1.28-3.65-3.43-4.18c-3.32-0.82-6.81-0.79-9.97-2.4
	c-3.01-1.54-5.23-3.44-5.31-7.12c-0.08-3.81,1.86-6.3,5.11-7.82c5.01-2.35,10.01-1.65,14.91,0.48c1.04,0.45,2.35,0.8,1.46,2.45
	c-0.66,1.23-1.16,1.85-3,1.5c-3.17-0.61-6.04-3.22-9.65-1.5c-2.14,1.02-4.61,1.66-4.51,4.56c0.09,2.59,2.18,3.51,4.38,4.07
	c2.4,0.62,4.79,1.3,7.22,1.79c4.71,0.95,7.48,3.45,7.15,8.55c-0.26,4.06-3.54,6.96-8.51,7.56
	C712.23,1238.62,710.9,1238.67,710.31,1238.71z"/>
<path class="st1" d="M647.36,1208.52c0.29-0.15,0.69-0.51,0.87-0.42c4.22,2.13,8.34,1.17,12.5-0.24c1.08-0.37,1.82,0.32,2,1.56
	c0.31,2.13-1.18,3.11-2.68,3.65c-7.41,2.7-7.97,3.37-8.04,11.23c-0.03,3.31-0.26,6.64,0.04,9.92c0.33,3.53-0.86,4.91-4.36,4.14
	C647.58,1228.42,647.47,1218.47,647.36,1208.52z"/>
</svg>
