<svg version="1.1" xmlns="http://www.w3.org/2000/svg" width="206.34" height="210.07" viewBox="0 0 206.34 210.07">
  <g transform="translate(-192.26, -1112.62)">
    <path fill="#2079B5" d="M296.54,1211.9c4.9,2.28,8.37,5.51,7.51,11.51c-0.26,1.84,0.89,2.69,2.07,3.64c5.7,4.59,11.38,9.21,17.09,13.78 c0.99,0.79,1.96,1.96,3.51,1.08c1.29-0.73,1.01-1.99,1.01-3.11c-0.01-9.99-0.1-19.98-0.02-29.96c0.02-2.13-0.81-3.29-2.52-4.38 c-3.84-2.46-4.9-6.21-3.87-10.45c0.93-3.82,2.88-6.66,7.55-6.34c2.42,0.17,3.2-1.9,4.07-3.74c2.72-5.7,5.3-11.49,8.36-17 c1.64-2.96,1.46-4.65-1.02-7.13c-8.42-8.39-8.81-22.33-1.25-30.84c8.41-9.46,21.75-11.08,31.48-3.81c9.69,7.23,12.25,20.41,6,30.78 c-1.48,2.46-3.22,4.83-5.71,6.16c-3.51,1.88-3.25,4.23-2.14,7.41c3.79,10.83,7.39,21.72,11.01,32.61c0.55,1.65,1.17,2.81,3.07,3.47 c5.99,2.1,8.33,5.47,7.78,10.5c-0.57,5.19-3.71,7.94-10.24,8.95c-1.51-0.37-3.02-0.74-4.53-1.12c-0.31-0.34-0.61-0.67-0.92-1.01 c-1.03-1.39-2.06-2.79-3.1-4.18c-0.28-1.55-0.55-3.1-0.83-4.66c-0.11-1.59,0.37-3.04,1.08-4.43c1.75-0.84,3.09-1.73,2.24-4.15 c-4.26-12.17-8.41-24.37-12.6-36.56c-0.62-1.8-1.56-2.51-3.24-1.11c-1.62,0.17-3.12-0.26-4.58-0.93c-0.32-0.06-0.62-0.03-0.92,0.09 c-1.34,0.12-2.59-1.93-4.01-0.18c-1.94,1.99-2.66,4.61-3.7,7.07c-1.34,2.44-3.04,4.71-3.41,7.58c-0.22,0.46-0.43,0.91-0.65,1.37 c-0.26,0.18-0.37,0.42-0.33,0.73c-0.37,0.75-0.74,1.49-1.12,2.24c-0.28,0.68-0.55,1.36-0.83,2.04c-1.86,2.24,0.48,3.41,1.27,4.98 c0.04,1.69-0.54,3.47,0.78,4.96c0.17,1.53-0.41,2.88-1.02,4.23c-2.65,1.65-6.03,2.36-5.92,6.79c0.25,9.75,0.14,19.51,0.05,29.26 c-0.02,1.96,0.39,3.52,1.95,4.71c2.88,0.93,4.32,2.96,4.57,5.92c1.07,2.2,0.06,4.19-0.64,6.2c-1.4,1.39-0.89,3.94-2.96,4.93 c-1.32,0.36-2.65,0.72-3.97,1.09c-1.69-0.01-3.38-0.01-5.07-0.02c-1.9-1.38-4.32-2.2-5.17-4.74c-0.4-1.78-2.23-3.08-1.76-5.16 c0.19-0.44,0.38-0.87,0.57-1.31c0.17-0.19,0.2-0.39,0.08-0.61c-0.17-0.46-0.21-1.09-0.54-1.36c-6.62-5.47-13.27-10.91-19.92-16.34 c-1.6-1.31-3.05-0.75-4.42,0.45c-1.54,0-3.09,0-4.63-0.01c-5.08-2.17-8.31-5.54-7.29-11.53c0.31-1.83-0.72-2.68-1.94-3.66 c-6.07-4.92-12.08-9.91-18.14-14.86c-0.99-0.81-1.95-2.11-3.45-1.33c-1.45,0.75-1.09,2.29-1.11,3.59 c-0.09,9.32-0.12,18.65-0.28,27.97c-0.04,2.18,0.51,3.61,2.47,4.88c3.57,2.33,4.72,5.91,3.76,10.04c-1.02,4.37-3.94,7.11-8.29,7.46 c-2.89,0.24-3.91,1.76-5.05,3.89c-2.8,5.27-5.09,10.83-8.75,15.61c-2.94,1.58-4.21-0.35-5.34-2.55c2.74-5.2,5.37-10.47,8.27-15.59 c1.44-2.55,2.37-4.92,0.83-7.69c0.05-3.22,0.11-6.44,0.16-9.66c4.33-1.36,5.98-4.09,5.79-8.79c-0.32-8.22-0.03-16.48,0.22-24.71 c0.08-2.74-0.51-4.8-3.07-6.03c-1.34-1.12-3.48-1.65-3.06-4.09c-0.63-3,0.06-5.92,0.47-8.86c1.76-0.46,2.09-2.13,2.88-3.41 c1.9,0.44,3.26-0.61,4.63-1.64c1.4,0.69,2.84,1.15,4.43,0.89c2.29,1.32,4.62,2.6,5.69,5.24c1.03,1.55,1.03,3.33,1.12,5.09 c-0.65,2.03,0.22,3.36,1.79,4.62c6.13,4.95,12.23,9.94,18.24,15.03c1.73,1.47,3.18,1.32,4.82,0.13 C293.48,1210.69,295.01,1211.35,296.54,1211.9z M356.61,1128.01c-8.44,0.12-15.4,7.23-15.43,15.77c-0.03,8.6,7.35,15.92,15.95,15.83 c8.42-0.1,15.42-7.25,15.42-15.77C372.54,1135.27,365.12,1127.9,356.61,1128.01z"/>
    <path fill="#386B92" d="M238.71,1271.3c1.13,2.2,2.4,4.13,5.34,2.55c-0.27,1.84,1.29,2.57,2.27,3.61c8.73,9.27,8.1,24.02-1.4,32.02 c-9.59,8.07-24.12,6.58-31.53-3.23c-7.75-10.27-5.57-24.3,5.24-31.5c2.65-1.77,2.97-3.23,2.11-5.99 c-3.21-10.31-6.26-20.68-9.26-31.06c-0.69-2.39-1.59-3.99-4.33-4.67c-4.6-1.15-6.91-4.72-6.89-9.26c0.01-4.5,2.19-8.16,6.84-9.3 c2.63-0.64,3.26-2.18,3.88-4.39c3.36-12.01,6.78-23.99,10.34-35.94c0.69-2.32,0.5-3.87-1.16-5.8c-3.22-3.73-3.11-8.1-0.34-11.98 c2.86-4.02,7.17-4.94,11.55-2.96c2.33,1.05,3.7,0.4,5.35-0.83c2.4-1.79,4.85-3.51,7.25-5.29c3.44-2.55,7.15-4.23,6.95-10.11 c-0.19-5.51,5.68-8.59,11.32-7.41c5.06,1.06,8.86,6.29,7.19,11.26c-1.23,3.65-0.09,5.88,1.89,8.46c5.86,7.66,11.65,15.38,17.4,23.13 c1.36,1.84,3.07,3.66,5.25,2.91c4.92-1.7,7.15,1.25,9.04,4.68c2.2,4,1.67,8.72-1.96,10.76c-5.26,2.95-4.33,7.12-4.37,11.44 c-0.03,3.16-0.08,6.32-0.13,9.48c-1.53-0.54-3.06-1.2-4.62-0.06c-0.06-4.95-0.1-9.91-0.18-14.86c-0.02-1.26,0.24-2.51-1.07-3.56 c-3.83-3.06-7.36-6.01-12.96-3.59c-3.25,1.41-7.07,1.52-10.63,2.22c-0.09-1.76-0.09-3.54-1.12-5.09c5.39-0.94,10.81-1.75,16.17-2.85 c2.76-0.57,4.91-5.23,3.33-7.4c-6.57-9-13.34-17.86-20.05-26.75c-0.59-0.78-1.29-1.66-2.46-1.11c-0.9,0.42-0.79,1.38-0.84,2.18 c-0.62,10.23-1.23,20.46-1.84,30.69c-1.59,0.27-3.03-0.2-4.43-0.89c-0.44-9.48,0.77-18.9,1.28-28.34c0.11-2.09,0.15-3.76-2.12-5 c-2.35-1.29-3.39,0.49-4.77,1.42c-3.31,2.23-6.43,4.75-9.81,6.87c-2.48,1.55-2.95,3.46-3.55,6.3c-1.07,5.1,1.44,7.55,4.57,10.42 c3.43,3.13,6.52,6.63,9.76,9.97c-0.79,1.28-1.12,2.94-2.88,3.4c-4.52-4.42-9.03-8.86-13.58-13.24c-0.77-0.74-1.48-2.16-2.84-1.38 c-1.28,0.73-0.58,2.08-0.46,3.18c0.85,8.27,1.66,16.54,2.63,24.8c0.3,2.58-1.23,4.12-3.08,4.37c-2.53,0.34-1.72-2.3-1.88-3.65 c-0.92-7.93-1.66-15.88-2.47-23.82c-4.23,11.88-7.62,23.81-11.03,35.73c-0.36,1.26-1.31,2.72-0.07,3.69 c1.35,1.06,2.43-0.49,3.45-1.19c9.64-6.52,19.24-13.08,28.86-19.63c-0.43,2.44,1.71,2.97,3.06,4.09c-7,4.19-13.63,8.92-20.15,13.81 c-3.18,2.05-6.42,4.01-9.51,6.18c-2.77,1.95-2.57,5.44,0.45,6.99c3.22,1.64,6.61,2.94,9.93,4.39c5.45,2.72,10.89,5.44,16.34,8.16 c-0.05,3.22-0.11,6.44-0.16,9.66c-1.45-1.72,0.37-4.68-2.61-5.99c-8.37-3.68-16.64-7.56-24.9-11.48c-1.61-0.76-2.72-0.61-4.02,0.52 c-1.26,1.09-1.07,2.11-0.64,3.53c3.45,11.28,6.79,22.59,10.16,33.9c0.33,1.11,0.53,2.57,2.07,2.27 C231.55,1270.07,235.06,1271.96,238.71,1271.3z M245.21,1293.53c0.36-8.15-6.13-15.24-14.23-15.54c-7.67-0.28-14.61,6.4-14.92,14.39 c-0.31,7.87,6.2,14.88,14.06,15.14C238.26,1307.78,244.85,1301.68,245.21,1293.53z"/>
    <path fill="#386B92" d="M327.91,1260.86c1.69,0.01,3.38,0.01,5.07,0.02c-0.48,9.78-0.95,19.56-1.44,29.34c-0.08,1.71,0,3.12,1.89,4.13 c1.79,0.96,3.04,0.61,4.47-0.46c3.97-2.99,8.01-5.89,11.96-8.91c2.86-2.19,2.99-9.95,0.36-12.43c-4.46-4.22-8.85-8.5-13.27-12.75 c2.07-0.99,1.55-3.54,2.96-4.93c3.29,5.97,9.52,9.08,13.74,14.15c0.8,0.96,1.61,2.46,3.2,1.69c1.6-0.78,0.76-2.34,0.64-3.57 c-0.83-8.43-1.6-16.86-2.63-25.27c-0.34-2.76,1.09-4.59,3.12-4.81c2.62-0.28,1.75,2.52,1.91,4.03c0.86,8.13,1.57,16.27,2.33,24.41 c0.23,0.02,0.47,0.04,0.7,0.06c4.29-13.88,8.57-27.77,12.86-41.65c1.51,0.37,3.02,0.74,4.53,1.12 c-4.24,14.18-8.45,28.37-12.78,42.52c-0.69,2.27-0.72,3.77,1.16,5.69c3.45,3.52,3.56,8.57,0.76,12.33 c-2.96,3.96-7.06,5.28-11.47,3.26c-2.87-1.31-4.59-0.5-6.62,1.18c-1.92,1.59-3.97,3.04-6,4.48c-3.58,2.54-7.04,4.46-6.69,10.29 c0.33,5.53-5.98,9.21-11.53,8.07c-5.31-1.09-9.05-6.38-7.11-11.7c1.42-3.91-0.32-5.79-2.32-8.24c-5.68-6.96-11.31-13.97-16.85-21.04 c-1.35-1.72-2.6-2.44-4.99-2.17c-5.3,0.61-8.94-1.88-10.49-6.46c-1.5-4.4-0.07-8.65,4.46-11.51c1.9-1.2,2.3-2.5,2.28-4.46 c-0.06-5.16-0.01-10.32,0-15.49c1.54,0,3.09,0,4.63,0.01c0.09,5.13,0.16,10.26,0.3,15.39c0.03,1.26-0.49,2.74,0.84,3.67 c3.47,2.42,6.43,5.74,11.63,3.19c3.48-1.71,7.62-2.09,11.46-3.07c-0.47,2.08,1.36,3.37,1.76,5.16c-5.26-0.07-10.03,2.09-15,3.33 c-4.6,1.14-6.05,5.69-3.09,9.45c5.97,7.58,12.08,15.05,18.17,22.53c0.77,0.95,1.38,2.72,3,1.99c1.46-0.65,0.86-2.36,0.92-3.63 C327.16,1280.16,327.53,1270.51,327.91,1260.86z"/>
    <path fill="#386B92" d="M374.86,1222.91c-11,7.74-22.01,15.48-33.01,23.23c-0.85,0.6-1.41,1.4-1.3,2.52c-0.25-2.96-1.69-4.99-4.57-5.92 c2.13,0.61,3.39-1.02,4.81-2.02c10.35-7.29,20.65-14.66,30.97-22C372.79,1220.12,373.83,1221.52,374.86,1222.91z"/>
    <path fill="#386B92" d="M352.92,1186.85c1.07-6.3,0.63-12.66,0.75-19c0.18-0.3,0.24-0.62,0.17-0.96c1.45,0.67,2.95,1.1,4.58,0.93 c-0.27,9.78-0.47,19.56-0.87,29.33c-0.05,1.34,0.99,3.81-1.61,3.85c-2.43,0.04-4.58-0.98-4.21-4.16c0.1-2.9,0.2-5.81,0.3-8.71 C352.61,1187.9,353.06,1187.58,352.92,1186.85z"/>
    <path fill="#386B92" d="M340.92,1197.76c2,0.64,4,1.27,6,1.91c8.36,3.32,16.72,6.65,25.09,9.97c-0.71,1.39-1.19,2.84-1.08,4.43 c-10.42-3.83-20.94-7.39-31.02-12.08C340.51,1200.65,341.09,1199.29,340.92,1197.76z"/>
    <path fill="#386B92" d="M351.89,1209.59c3.52,0.34,5.75,1.32,5.41,4.85c-0.45,4.71,3.72,10.4-3.33,14.48 C353.24,1222.21,352.59,1216.1,351.89,1209.59z"/>
    <path fill="#386B92" d="M232.5,1229.25c-0.95-5.17-2.69-10.29-0.72-15.59c2.02-1.26,3.59-2.18,3.75,1.62 c0.21,5.05,0.97,10.07,1.53,15.42C235.25,1230.12,233.88,1229.69,232.5,1229.25z"/>
  </g>
</svg>