<?xml version="1.0" encoding="utf-8"?>
<!-- Generator: Adobe Illustrator 24.2.2, SVG Export Plug-In . SVG Version: 6.00 Build 0)  -->
<svg version="1.1" id="Layer_1" xmlns="http://www.w3.org/2000/svg" xmlns:xlink="http://www.w3.org/1999/xlink" x="0px" y="0px"
	 viewBox="0 0 1125 2436" style="enable-background:new 0 0 1125 2436;" xml:space="preserve">
<style type="text/css">
	.st0{fill:#EDB087;}
	.st1{fill:#8083A3;}
</style>
<path class="st0" d="M563.2,1211.72c4.95,2.29,7.92,5.81,7.39,11.61c-0.07,0.75,0.08,1.89,0.56,2.25
	c7.1,5.24,13.16,11.83,21.04,16.04c0.11,0.06,0.32-0.06,0.48-0.1c1.02-0.2,1.24-0.97,1.24-1.84c-0.03-10.78-0.06-21.55-0.1-32.33
	c0-0.84-0.1-1.66-1.15-1.89c-8.55-7.73-7.05-15.2,3.92-18.97c1.72-0.59,2.22-1.85,2.85-3.17c2.64-5.56,5.07-11.22,7.95-16.65
	c1.53-2.87,1-4.44-1.21-6.73c-12.36-12.8-7.47-33.04,9.11-38.4c10.84-3.5,22.08,1.13,27.57,11.35c5.37,10,2.61,22.55-6.79,29.43
	c-2.21,1.62-3.19,2.83-2.18,5.58c4.07,11.08,7.98,22.22,11.95,33.33c0.61,1.71,1.13,3.11,3.34,3.81c6.02,1.92,8.68,5.56,8.25,10.3
	c-0.45,5.1-4.08,8.3-10.62,9.35c-1.35-0.11-2.71-0.22-4.06-0.34c-0.98-2.03-2.1-1.86-3.81-0.62c-10.03,7.32-20.14,14.52-30.22,21.78
	c-0.9,0.65-2.23,1.16-1.66,2.65c1.12,2.9-0.54,5.52-0.69,8.29c-0.92,0.93-1.83,1.86-2.75,2.79c-1.36,0.42-2.71,0.84-4.07,1.27
	c-1.65,0.01-3.29,0.02-4.94,0.03c-2.73-1.23-4.54-3.59-6.74-5.46c-0.25-1.32-0.49-2.64-0.74-3.96c1.42-2.51,0.49-4.18-1.68-5.82
	c-5.13-3.87-10.22-7.82-15.1-12c-2.18-1.86-4.27-2.66-6.98-1.81c-1.54,0.02-3.08,0.04-4.63,0.06c-5.16-2.33-8.52-5.8-7.47-11.99
	c0.32-1.89-1.14-2.62-2.25-3.55c-5.86-4.91-11.72-9.8-17.63-14.66c-0.97-0.8-1.87-2.01-3.48-1.15c-1.56,0.83-1.11,2.28-1.13,3.53
	c-0.09,9.31-0.08,18.63-0.21,27.94c-0.03,2.18,0.52,3.57,2.5,4.85c3.35,2.17,4.54,5.58,3.89,9.55c-0.7,4.3-3.48,6.95-7.46,7.73
	c-3.39,0.67-5.09,2.54-6.54,5.34c-2.67,5.15-5.57,10.19-8.37,15.28c-2.08-0.53-3.72-1.78-5.28-3.17c1.26-2.52,2.49-5.05,3.78-7.55
	c3.28-6.35,8.81-12.19,4.53-20.23c0.36-1.61,0.71-3.21,1.07-4.82c1.31-1.04,2.62-2.07,3.93-3.11c1.98-0.74,1.28-2.5,1.3-3.83
	c0.17-9.78,0.23-19.55,0.33-29.33c0.39-0.57,0.46-1.11-0.14-1.59c-0.47-0.28-0.93-0.56-1.4-0.84c-0.7-1.06-1.72-1.58-2.94-1.74
	c-0.2-1.51-0.67-2.77-2.54-2.73c1.35-3.17-0.38-6.86,1.66-9.91c1.19-0.83,2.29-1.74,2.84-3.14c1.88,0.01,3.48-0.73,4.95-1.82
	c1.31,0.26,2.63,0.52,3.94,0.78c2.93,1.13,4.59,3.81,6.92,5.67c0.08,1.51,0.15,3.02,0.23,4.53c-0.5,1.68-0.53,3.07,1.11,4.4
	c6.35,5.11,12.6,10.34,18.82,15.61c1.8,1.52,3.25,1.2,4.77-0.25C560.09,1211.48,561.64,1211.6,563.2,1211.72z M620.03,1166.9
	c-1.99,0-4.22-2.46-5.83,1.06c-2.96,6.46-6.28,12.76-9.36,19.16c-0.85,1.77,2.2,9.93,4.03,10.57c3.88,1.37,7.54,3.42,11.7,3.99
	c5.19,2.1,10.37,4.21,15.56,6.31c1.34,0.54,2.65,1.54,4.02-0.01c1.13-1.28,0.4-2.45-0.03-3.69c-4.13-11.69-8.23-23.39-12.37-35.08
	c-0.54-1.52-0.93-3.45-3.33-2.18C622.96,1166.98,621.49,1166.94,620.03,1166.9z M605.58,1201.95c-1.89,1.61-5.1,2.22-5.12,5.65
	c-0.05,10.49-0.08,20.99,0.19,31.48c0.08,3.32,2.34,4.35,5.14,2.37c10.16-7.2,20.28-14.47,30.32-21.83
	c2.91-2.14,2.32-5.33-1.17-6.67c-7.3-2.81-14.65-5.47-21.98-8.2C610.62,1203.86,608.29,1202.97,605.58,1201.95z M637.89,1143.75
	c0.07-8.84-6.4-15.63-15.12-15.85c-8.69-0.22-16.02,6.9-16.04,15.58c-0.02,8.78,7.05,15.85,15.82,15.8
	C631.37,1159.24,637.82,1152.71,637.89,1143.75z"/>
<path class="st1" d="M517.79,1182.44c-0.56,1.4-1.65,2.31-2.84,3.14c-4.08-3.91-8.12-7.86-12.27-11.7
	c-1.12-1.03-1.99-3.26-3.94-2.25c-1.75,0.91-0.33,2.68-0.26,4.07c0.44,9.2,2.41,18.31,1.65,27.96c4.5-2.79,8.83-5.48,13.17-8.17
	c1.87-0.04,2.34,1.22,2.53,2.73c-4.93,5.47-11.68,8.55-17.25,13.18c-0.39,0.28-0.78,0.57-1.18,0.85c-3.03,2.02-6.15,3.92-9.07,6.09
	c-3.11,2.31-2.87,5.54,0.57,7.29c3.1,1.57,6.38,2.77,9.58,4.14c0.69,0.31,1.39,0.62,2.08,0.94c4.41,3.22,10.09,4.18,14.19,7.97
	c-0.36,1.61-0.71,3.21-1.07,4.82c-8.61-6.01-18.64-9.17-28.02-13.6c-2.08-0.98-4.32,1.04-3.34,4.25
	c3.36,11.09,6.66,22.19,9.97,33.29c0.56,1.87,1.32,3.21,3.71,3.2c3.12-0.02,6.24,0.4,9.37,0.63c1.55,1.4,3.2,2.64,5.28,3.17
	c12.52,11.42,12,28.12-1.14,36.53c-10.03,6.42-23.04,3.67-29.99-6.32c-6.56-9.43-4.37-23.02,5.19-29.71
	c3.08-2.16,3.5-4.22,2.46-7.51c-3.25-10.3-6.39-20.64-9.33-31.03c-0.67-2.36-2.04-3.16-4.05-3.75c-4.58-1.34-6.95-4.62-6.91-9.23
	c0.03-4.53,2.16-8.1,6.82-9.29c2.3-0.59,3.22-1.88,3.8-3.95c3.42-12.16,6.85-24.31,10.44-36.42c0.69-2.32,0.44-3.9-1.12-5.84
	c-2.9-3.6-3.07-7.75-0.35-11.56c2.78-3.91,6.7-5.63,11.32-3.63c2.74,1.19,4.63,0.67,6.74-1.16c2-1.74,4.25-3.2,6.46-4.68
	c3.48-2.33,6.31-4.42,6.18-9.68c-0.14-5.44,6.33-9.12,11.66-7.78c5.56,1.39,9.05,7.03,7.06,12.23c-0.98,2.58-0.59,4.23,0.97,6.28
	c5.94,7.8,11.76,15.7,17.55,23.62c1.61,2.2,3.43,3.18,6.3,3c4.69-0.3,7.93,1.99,9.36,6.58c1.42,4.56,0.04,8.39-3.75,10.92
	c-2.31,1.54-2.94,3.16-2.89,5.71c0.09,4.65-0.13,9.31-0.22,13.97c-1.56-0.12-3.11-0.24-4.67-0.36c-0.23-4.94-0.51-9.88-0.65-14.82
	c-0.05-1.78-0.82-2.82-2.02-4.15c-3.13-3.48-6.46-4.24-10.88-2.88c-3.59,1.11-7.43,1.43-11.16,2.09c-0.08-1.51-0.15-3.02-0.23-4.53
	c4.68-1.89,9.79-1.8,14.58-3.2c3.96-1.16,5.45-5.05,3.01-8.36c-6.02-8.17-12.14-16.25-18.27-24.34c-0.76-1-1.3-2.76-2.86-2.41
	c-2.01,0.45-1.26,2.45-1.36,3.79c-0.73,9.61-1.36,19.23-2.02,28.85c-1.31-0.26-2.63-0.52-3.94-0.79c-0.08-0.99-0.26-1.98-0.22-2.97
	c0.35-8.61,0.72-17.21,1.12-25.82c0.09-1.91-0.03-3.54-2.14-4.52c-2.02-0.94-3.11,0.43-4.39,1.34c-3.25,2.29-6.43,4.68-9.67,6.98
	c-4.44,3.16-5.17,10.82-1.33,14.67C510.07,1174.28,514.49,1177.82,517.79,1182.44z M483.49,1292.09
	c-0.15,8.52,5.59,14.75,13.88,15.04c7.91,0.28,14.73-6.22,14.95-14.25c0.23-8.19-6.51-15.12-14.66-15.08
	C489.76,1277.83,483.63,1284.01,483.49,1292.09z M493.39,1176.52c-0.31-0.02-0.61-0.04-0.92-0.07c-3.54,12.04-7.08,24.09-10.6,36.14
	c-0.28,0.95-0.51,2.06,0.53,2.68c1.02,0.61,1.89-0.15,2.7-0.71c2.99-2.09,6.11-4.03,8.91-6.36c1.75-1.45,6.99-2.23,1.94-6.12
	c-0.53-0.41-0.22-1.91-0.32-2.9C494.89,1191.63,494.14,1184.07,493.39,1176.52z"/>
<path class="st1" d="M642.74,1224.37c1.35,0.11,2.71,0.22,4.06,0.34c-3.03,10.35-6.05,20.7-9.11,31.04
	c-1.13,3.82-2.25,7.65-3.56,11.41c-0.8,2.28-0.53,3.93,1.18,5.83c3.26,3.64,3.29,7.91,0.84,12c-2.26,3.77-7.05,5.24-11.87,3.46
	c-2.4-0.89-4.08-0.53-5.9,0.95c-2.06,1.68-4.11,3.41-6.34,4.83c-3.85,2.46-6.89,4.74-6.74,10.36c0.15,5.52-5.94,9.02-11.64,7.88
	c-4.88-0.97-8.96-6.99-7.29-11.81c1.12-3.23,0.23-5.18-1.68-7.51c-5.49-6.67-10.87-13.43-16.15-20.26
	c-1.86-2.41-3.75-3.87-7.07-3.42c-4.88,0.66-8.06-2.25-9.48-6.43c-1.42-4.19-0.66-8.51,3.58-10.92c2.85-1.63,3.2-3.76,3.12-6.59
	c-0.13-4.65,0.03-9.31,0.08-13.97c1.54-0.02,3.08-0.04,4.63-0.06c0.07,4.15,0.19,8.31,0.2,12.46c0.01,8.87,4.38,12.15,12.89,9.53
	c3.5-1.08,7.02-2.01,10.67-2.37c0.25,1.32,0.49,2.64,0.73,3.96c-4.27,2.34-9.08,2.91-13.66,4.25c-4.21,1.23-5.85,5.66-3.13,9.08
	c6,7.51,12.07,14.96,18.17,22.38c0.78,0.95,1.28,2.78,2.85,2.37c1.87-0.49,1.36-2.41,1.42-3.81c0.4-9.6,0.73-19.2,1.09-28.8
	c1.65-0.01,3.29-0.02,4.94-0.03c-0.35,9.47-0.72,18.95-1.04,28.42c-0.06,1.92-0.54,3.94,1.91,5.13c2.19,1.07,3.39-0.2,4.86-1.29
	c3.34-2.48,6.76-4.85,10.09-7.33c4.1-3.05,4.38-10.43,0.54-13.89c-4.31-3.89-8.85-7.56-12.3-12.3c0.92-0.93,1.83-1.86,2.75-2.79
	c5.3,3.77,9.54,8.72,14.41,12.98c0.75,0.65,1.47,1.47,2.6,0.95c1.24-0.57,0.73-1.63,0.63-2.6c-0.36-3.63-0.69-7.27-1.02-10.91
	c-0.48-5.29-0.95-10.58-1.42-15.87c-0.19-2.17,1-3.89,2.85-4.07c2.2-0.21,1.51,2.26,1.66,3.43c1.02,8.04,1.8,16.11,2.66,24.17
	c2.19-4.36,3.5-8.92,5.04-13.4C636.85,1242.27,638.61,1232.92,642.74,1224.37z"/>
<path class="st1" d="M620.72,1201.48c-1.97-1.49-2.07-3.56-1.96-5.8c0.46-9.59,0.85-19.19,1.27-28.79c1.47,0.04,2.93,0.09,4.38,0.13
	c1.02,10.49-1.44,20.89-0.8,31.37C623.74,1200.53,622.77,1201.48,620.72,1201.48z"/>
<path class="st1" d="M620.09,1227.94c-0.48-5.44-0.95-10.54-1.35-15.65c-0.08-1.08-0.41-2.52,1.26-2.75c1.17-0.16,2.83,0.16,3,1.25
	c0.75,4.85,2.47,9.7,1.06,14.63C623.71,1226.69,622.27,1227.74,620.09,1227.94z"/>
<path class="st1" d="M498.28,1213.04c0.34-0.27,0.68-0.54,1.02-0.8c1.79-0.96,2.86-0.36,3.06,1.57c0.5,4.71,0.89,9.42,1.34,14.14
	c0.2,2.07-0.71,2.67-2.6,2.01c-0.6-0.35-1.21-0.69-1.81-1.03C497.8,1223.7,497.11,1218.43,498.28,1213.04z"/>
</svg>
