<?xml version="1.0" encoding="utf-8"?>
<!-- Generator: Adobe Illustrator 24.2.2, SVG Export Plug-In . SVG Version: 6.00 Build 0)  -->
<svg version="1.1" id="Layer_1" xmlns="http://www.w3.org/2000/svg" xmlns:xlink="http://www.w3.org/1999/xlink" x="0px" y="0px"
	 viewBox="0 0 1125 2436" style="enable-background:new 0 0 1125 2436;" xml:space="preserve">
<style type="text/css">
	.st0{fill:#13273E;}
</style>
<path class="st0" d="M430.33,1220.31c0-6.23,0.3-12.47-0.11-18.67c-0.26-4,1.86-3.72,4.51-3.78c2.78-0.06,4.54-0.02,4.43,3.81
	c-0.31,10.64-0.05,21.3-0.17,31.95c-0.02,1.56,1.23,4.22-1.26,4.56c-2.54,0.35-5.49,1.26-7.7-1.76c-4.7-6.43-9.71-12.65-14.6-18.94
	c-0.58-0.74-1.24-1.42-2.68-3.06c0,7.45-0.31,13.84,0.11,20.19c0.3,4.46-2.32,3.67-4.95,3.83c-2.92,0.18-4.42-0.21-4.32-3.87
	c0.29-10.64,0.04-21.3,0.18-31.95c0.02-1.52-1.35-4.24,1.31-4.48c2.54-0.23,5.5-1.43,7.77,1.56c5.31,7.01,10.86,13.84,16.31,20.75
	C429.55,1220.4,429.94,1220.36,430.33,1220.31z"/>
<path class="st0" d="M504.39,1209.06c0-3.82,0.24-7.15-0.06-10.44c-0.36-3.96,2.24-3.14,4.45-3.21c2.39-0.07,4.4-0.37,4.33,3.38
	c-0.25,11.8-0.05,23.61-0.12,35.42c-0.01,1.35,0.93,3.58-0.84,3.94c-2.31,0.47-5.78,1.39-6.99-0.46c-1.23-1.89-1.39-1.55-2.92-0.78
	c-7.6,3.85-16.03,1.2-19.54-5.99c-4-8.19-1.31-18.78,5.69-22.39C491.08,1207.15,499.69,1207.34,504.39,1209.06z M496.93,1214.27
	c-4.33,0.04-7.21,3.39-7.2,8.38c0,5.1,3.23,8.74,7.58,8.56c4.37-0.18,7.44-3.95,7.28-8.95
	C504.45,1217.47,501.34,1214.23,496.93,1214.27z"/>
<path class="st0" d="M567.43,1231.63c3.36-10.42,6.21-19.59,9.36-28.64c0.5-1.45-0.52-4.07,2.69-4.31c3.55-0.27,3.96,2.03,4.75,4.48
	c2.96,9.23,6.03,18.43,9.53,29.07c3.55-11.01,6.7-20.49,9.61-30.05c0.59-1.94,1.18-3.99,3.3-3.42c2.66,0.7,1.08,2.95,0.6,4.5
	c-3.38,10.76-6.87,21.49-10.24,32.25c-0.54,1.73-0.99,2.97-3.25,2.9c-2.11-0.07-2.73-1.03-3.31-2.86
	c-3.09-9.77-6.35-19.5-9.88-30.21c-3.73,8.31-5.5,16.32-8.26,23.96c-0.73,2.02-1.4,4.07-2.07,6.11c-0.45,1.37-0.45,3.18-2.62,2.93
	c-1.87-0.22-3.35-0.9-4.01-2.99c-3.5-11.07-7.11-22.1-10.61-33.17c-0.38-1.21-1.52-3.07,0.95-3.47c1.72-0.28,2.73,0.54,3.3,2.45
	c2.48,8.26,5.17,16.45,7.82,24.65C565.58,1227.34,566.29,1228.82,567.43,1231.63z"/>
<path class="st0" d="M538.58,1225.2c-2.82,0-5.65-0.03-8.47,0.02c-0.91,0.02-2.29-0.45-2.48,0.83c-0.11,0.77,0.58,1.87,1.22,2.51
	c3.36,3.33,7.51,3.98,11.3,1.49c4.05-2.66,5.08,0.82,6.42,2.71c1.59,2.26-1.25,2.92-2.51,3.74c-5.56,3.59-15.43,2.67-20.57-1.72
	c-4.74-4.06-6.41-11.89-3.89-18.31c2.97-7.56,10.37-11.08,19.2-9.13c6.16,1.36,10.92,7.96,10.96,14.95
	c0.01,2.02-0.38,3.11-2.71,2.98c-2.82-0.16-5.65-0.04-8.47-0.04C538.58,1225.22,538.58,1225.21,538.58,1225.2z M541.29,1219.97
	c-1-4.21-3.21-5.97-6.53-6.23c-2.82-0.21-5.21,0.78-6.8,3.28c-1.24,1.94-1.08,3.03,1.59,2.97
	C533.33,1219.91,537.1,1219.97,541.29,1219.97z"/>
<path class="st0" d="M461.27,1238.64c-9.83,0.13-15.59-5.42-16.41-15.91c-0.56-7.08,6-15.05,11.56-15.06
	c15.2-0.02,20.64,3.93,20.77,15.05C477.3,1232.2,470.93,1238.56,461.27,1238.64z M453.77,1222.5c-0.05,5.06,3.17,8.79,7.55,8.73
	c4.21-0.06,7.32-3.58,7.4-8.38c0.08-5.22-2.89-8.61-7.52-8.58C456.85,1214.29,453.82,1217.65,453.77,1222.5z"/>
<path class="st0" d="M673.28,1222.86c8.22-4.08,11.22-13.98,20.41-15.27c0.48,0.52,0.96,1.03,1.44,1.55
	c-2.87,2.55-5.6,5.27-8.64,7.58c-3.16,2.4-3.61,4.43-0.72,7.51c2.82,3.01,5.16,6.5,7.53,9.89c0.65,0.93,2.9,1.85,0.73,3.52
	c-1.89,1.46-2.97,0.29-4.07-1.12c-2.13-2.75-4.24-5.53-6.5-8.17c-1.31-1.53-2.42-5.06-4.08-4.09c-2.59,1.51-5.9,3.4-6.02,7.35
	c-0.05,1.5-0.12,3-0.05,4.49c0.08,1.74-0.65,2.36-2.36,2.29c-1.54-0.06-1.97-0.8-1.97-2.2c0-12.8-0.01-25.6-0.05-38.4
	c-0.01-1.62,0.53-2.44,2.3-2.43c2.4,0.01,2.03,1.71,2.04,3.14C673.29,1206.45,673.28,1214.4,673.28,1222.86z"/>
<path class="st0" d="M625.59,1238.59c-8.73,0.03-14.89-6.15-15.04-15.07c-0.15-9.26,5.93-15.78,14.78-15.86
	c8.9-0.08,14.99,6.29,14.96,15.63C640.26,1232.41,634.34,1238.56,625.59,1238.59z M614.85,1223.13c0.05,6.74,4.7,11.82,10.8,11.8
	c6.11-0.02,10.46-5.12,10.31-12.09c-0.14-6.81-4.37-11.47-10.42-11.49C619.31,1211.32,614.8,1216.28,614.85,1223.13z"/>
<path class="st0" d="M709.9,1238.59c-3.57,0.14-6.93-0.63-10.05-2.37c-1.14-0.64-2.33-1.16-1.28-2.96c0.95-1.63,1.84-1.51,3.2-0.65
	c3.22,2.03,6.81,2.63,10.53,2.17c2.57-0.32,5.02-1.22,5.3-4.28c0.3-3.27-2.33-4.12-4.74-4.79c-2.71-0.75-5.57-1-8.25-1.83
	c-3.68-1.14-5.91-3.63-5.77-7.72c0.14-4,2.42-6.61,6.02-7.69c4.55-1.37,9.23-1.21,13.66,0.74c0.97,0.43,2.85,0.46,1.85,2.64
	c-0.84,1.84-1.58,1.94-3.35,1.01c-3.17-1.67-6.65-2.11-10.16-0.99c-2,0.64-3.66,1.77-3.81,4.09c-0.15,2.42,1.52,3.59,3.53,4.2
	c2.22,0.67,4.5,1.13,6.77,1.64c6.34,1.42,8.89,3.92,8.62,8.47c-0.29,4.87-3.87,7.8-10.08,8.23
	C711.23,1238.53,710.57,1238.55,709.9,1238.59z"/>
<path class="st0" d="M652.09,1212.61c2.49-2.71,4.83-4.82,8.31-4.75c1.25,0.02,2.31-0.03,2.34,1.72c0.02,1.42-0.47,1.87-1.88,2.29
	c-7.01,2.06-8.72,4.4-8.85,11.69c-0.07,3.99-0.05,7.99-0.04,11.98c0.01,1.56,0.15,2.95-2.22,2.89c-2.42-0.06-2.05-1.6-2.05-3.05
	c-0.02-7.66-0.04-15.31-0.02-22.97c0-1.52-0.72-3.5,1.98-3.67C652.23,1208.57,651.7,1210.68,652.09,1212.61z"/>
</svg>
